<mxfile host="app.diagrams.net" modified="2024-07-03T03:46:33.262Z" agent="Mozilla/5.0 (Windows NT 10.0; Win64; x64) AppleWebKit/537.36 (KHTML, like Gecko) Chrome/126.0.0.0 Safari/537.36" version="24.6.4" etag="Jx2h8bWMmO9nbEfxXoo-" type="github">
  <diagram name="Page-1" id="mR5L63fCoXEE7vx6_7ua">
    <mxGraphModel>
      <root>
        <mxCell id="0" />
        <mxCell id="1" parent="0" />
      </root>
    </mxGraphModel>
  </diagram>
</mxfile>
